<svg xmlns="http://www.w3.org/2000/svg" xmlns:xlink="http://www.w3.org/1999/xlink" fill="none" version="1.1" width="22.5" height="20" viewBox="0 0 22.5 20"><g><path d="M10.31818,18.9042L21.8182,4.9042200000000005L17.181800000000003,1.09578L7.88499,12.41367L5.21982,9.48198L0.7801800000000001,13.518L5.78018,19.018Q5.92706,19.1796,6.0957799999999995,19.3182Q6.20967,19.4117,6.33217,19.4937Q6.45468,19.5756,6.58462,19.6451Q6.71457,19.7147,6.850709999999999,19.7711Q6.98684,19.8276,7.12786,19.8704Q7.26887,19.9133,7.41341,19.9421Q7.55795,19.9709,7.70461,19.9854Q7.85128,19.9999,7.99866,20Q8.14604,20.0001,8.29271,19.9857Q8.43939,19.9713,8.58395,19.9426Q8.72851,19.9139,8.86957,19.8712Q9.01062,19.8285,9.14681,19.7722Q9.283000000000001,19.7158,9.413,19.6464Q9.543009999999999,19.577,9.66559,19.4952Q9.788170000000001,19.4133,9.90214,19.3199Q10.016110000000001,19.2264,10.120370000000001,19.1223Q10.224630000000001,19.0181,10.31818,18.9042Z" fill-rule="evenodd" fill="#47C4CD" fill-opacity="1"/></g></svg>