<svg xmlns="http://www.w3.org/2000/svg" xmlns:xlink="http://www.w3.org/1999/xlink" fill="none" version="1.1" width="18" height="18" viewBox="0 0 18 18"><g><g><path d="M15.9282,12Q15.9446,12.0284,15.9591,12.0577Q15.9735,12.0871,15.9861,12.1173Q15.9986,12.1476,16.0091,12.1786Q16.0196,12.2096,16.0281,12.2412Q16.0366,12.2728,16.043,12.3049Q16.0494,12.337,16.0536,12.3695Q16.0579,12.4019,16.06,12.4346Q16.0622,12.4673,16.0622,12.5Q16.0622,12.5327,16.06,12.5654Q16.0579,12.5981,16.0536,12.6305Q16.0494,12.663,16.043,12.6951Q16.0366,12.7272,16.0281,12.7588Q16.0196,12.7904,16.0091,12.8214Q15.9986,12.8524,15.9861,12.8827Q15.9735,12.9129,15.9591,12.9423Q15.9446,12.9717,15.9282,13Q15.9118,13.0284,15.8936,13.0556Q15.8755,13.0828,15.8555,13.1088Q15.8356,13.1347,15.814,13.1593Q15.7924,13.184,15.7693,13.2071Q15.7461,13.2303,15.7215,13.2518Q15.6969,13.2734,15.6709,13.2934Q15.645,13.3133,15.6178,13.3315Q15.5905,13.3497,15.5622,13.366Q15.5338,13.3824,15.5045,13.3969Q15.4751,13.4114,15.4449,13.4239Q15.4146,13.4364,15.3836,13.4469Q15.3526,13.4575,15.321,13.4659Q15.2894,13.4744,15.2573,13.4808Q15.2252,13.4872,15.1927,13.4914Q15.1602,13.4957,15.1276,13.4979Q15.0949,13.5,15.0622,13.5L2.93782,13.5Q2.87228,13.5,2.8073,13.4914Q2.74231,13.4829,2.679,13.4659Q2.61569,13.449,2.55514,13.4239Q2.49458,13.3988,2.43782,13.366Q2.38106,13.3333,2.32906,13.2934Q2.27706,13.2535,2.23072,13.2071Q2.18437,13.1608,2.14447,13.1088Q2.10457,13.0568,2.0718,13Q2.03903,12.9432,2.01394,12.8827Q1.98886,12.8221,1.9719,12.7588Q1.95493,12.6955,1.94638,12.6305Q1.93782,12.5655,1.93782,12.5Q1.93782,12.4345,1.94638,12.3695Q1.95493,12.3045,1.9719,12.2412Q1.98886,12.1779,2.01394,12.1173Q2.03903,12.0568,2.0718,12L8.13398,1.5Q8.15034,1.47165,8.16853,1.44443Q8.18672,1.41721,8.20665,1.39124Q8.22658,1.36527,8.24816,1.34065Q8.26975,1.31604,8.29289,1.29289Q8.31604,1.26975,8.34065,1.24816Q8.36527,1.22658,8.39124,1.20665Q8.41721,1.18672,8.44443,1.16853Q8.47165,1.15034,8.5,1.13397Q8.52835,1.11761,8.55771,1.10313Q8.58707,1.08865,8.61732,1.07612Q8.64756,1.06359,8.67856,1.05307Q8.70956,1.04255,8.74118,1.03407Q8.7728,1.0256,8.80491,1.01921Q8.83702,1.01283,8.86947,1.00856Q8.90193,1.00428,8.9346,1.00214Q8.96726,1,9,1Q9.03274,1,9.0654,1.00214Q9.09807,1.00428,9.13053,1.00856Q9.16298,1.01283,9.19509,1.01921Q9.2272,1.0256,9.25882,1.03407Q9.29044,1.04255,9.32144,1.05307Q9.35244,1.06359,9.38268,1.07612Q9.41293,1.08865,9.44229,1.10313Q9.47165,1.11761,9.5,1.13397Q9.52835,1.15034,9.55557,1.16853Q9.58279,1.18672,9.60876,1.20665Q9.63473,1.22658,9.65935,1.24816Q9.68396,1.26975,9.70711,1.29289Q9.73026,1.31604,9.75184,1.34065Q9.77343,1.36527,9.79335,1.39124Q9.81328,1.41721,9.83147,1.44443Q9.84966,1.47165,9.86603,1.5L15.9282,12Z" fill="#FFFFFF" fill-opacity="1"/></g><g><rect x="2" y="15" width="14" height="3" rx="1" fill="#FFFFFF" fill-opacity="1"/></g></g></svg>