<svg xmlns="http://www.w3.org/2000/svg" xmlns:xlink="http://www.w3.org/1999/xlink" fill="none" version="1.1" width="15.999669075012207" height="16.000001907348633" viewBox="0 0 15.999669075012207 16.000001907348633"><g><path d="M0.809983,4.20708Q2.26695,1.95813,4.56991,0.75315C6.87586,-0.453825,9.7138,-0.106832,11.5748,1.06314Q13.4377,2.23312,14.0647,3.2201L15.6687,2.30512Q15.9997,2.14212,15.9997,2.52511L15.9997,8.265Q15.9997,8.77699,15.6107,8.59399C15.2877,8.43999,11.7638,6.43603,10.6548,5.80405Q10.0468,5.53205,10.5808,5.31206L12.1287,4.42607Q11.2458,3.3191,9.95379,2.73411C8.57082,2.01412,7.27685,1.92713,5.68988,2.52811C4.6559,2.9181,3.43793,3.91808,2.56195,5.39405L0.808984,4.20708L0.809983,4.20708ZM15.1897,11.7929Q13.7317,14.0409,11.4288,15.2469C9.12481,16.4538,6.28487,16.1068,4.42491,14.9369Q2.56195,13.7679,1.93496,12.7789L0.329993,13.6939Q0,13.8569,0,13.4759L0,7.73301Q0,7.22302,0.388992,7.40401C0.711985,7.55801,4.23491,9.56197,5.34489,10.194Q5.95288,10.466,5.41789,10.6869L3.86892,11.5729Q4.7539,12.6779,6.04588,13.2629C7.42785,13.9859,8.72282,14.0709,10.3078,13.4709C11.3428,13.0809,12.5597,12.0809,13.4377,10.6029L15.1897,11.7919L15.1897,11.7929Z" fill="#FFFFFF" fill-opacity="1" style="mix-blend-mode:passthrough"/></g></svg>